<svg width="141" height="127" viewBox="0 0 141 127" fill="none" xmlns="http://www.w3.org/2000/svg">
<path d="M84.9646 121.909H55.8568C55.2389 121.909 54.7373 121.407 54.7373 120.79V98.3989C54.7373 97.781 55.2389 97.2794 55.8568 97.2794H84.9646C85.5825 97.2794 86.0841 97.781 86.0841 98.3989V120.79C86.0841 121.407 85.5825 121.909 84.9646 121.909ZM56.9764 119.67H83.845V99.5185H56.9764V119.67Z" fill="#11CFE7" stroke="#11CFE7" stroke-width="1.2"/>
<path d="M2.11953 79.3669C1.50155 79.3669 1 78.8654 1 78.2474V2.11953C1 1.50155 1.50155 1 2.11953 1H138.702C139.32 1 139.821 1.50155 139.821 2.11953C139.821 2.73751 139.32 3.23906 138.702 3.23906H3.23906V78.2474C3.23906 78.8654 2.73751 79.3669 2.11953 79.3669Z" fill="#FF14A1" stroke="#FF14A1" stroke-width="1.2"/>
<path d="M138.702 99.5184H2.11953C1.50155 99.5184 1 99.0169 1 98.3989C1 97.7809 1.50155 97.2794 2.11953 97.2794H137.582V22.271C137.582 21.653 138.084 21.1515 138.702 21.1515C139.32 21.1515 139.821 21.653 139.821 22.271V98.3989C139.821 99.0169 139.32 99.5184 138.702 99.5184Z" fill="#FF14A1" stroke="#FF14A1" stroke-width="1.2"/>
<path d="M131.984 83.8449H8.83632C8.21835 83.8449 7.7168 83.3434 7.7168 82.7254V8.83657C7.7168 8.21859 8.21835 7.71704 8.83632 7.71704H131.984C132.602 7.71704 133.104 8.21859 133.104 8.83657V82.7254C133.104 83.3434 132.602 83.8449 131.984 83.8449ZM9.95585 81.6059H130.865V9.9561H9.95585V81.6059Z" fill="#FF14A1" stroke="#FF14A1" stroke-width="1.2"/>
<path d="M98.3986 126.387H42.4223C41.8043 126.387 41.3027 125.886 41.3027 125.268V120.789C41.3027 120.171 41.8043 119.67 42.4223 119.67H98.3986C99.0166 119.67 99.5182 120.171 99.5182 120.789V125.268C99.5182 125.886 99.0166 126.387 98.3986 126.387ZM43.5418 124.148H97.2791V121.909H43.5418V124.148Z" fill="#FF14A1" stroke="#FF14A1" stroke-width="1.2"/>
<path d="M138.702 16.6733C138.084 16.6733 137.582 16.1718 137.582 15.5538V11.0757C137.582 10.4577 138.084 9.95618 138.702 9.95618C139.32 9.95618 139.821 10.4577 139.821 11.0757V15.5538C139.821 16.1718 139.32 16.6733 138.702 16.6733Z" fill="#11CFE7" stroke="#11CFE7" stroke-width="1.2"/>
<path d="M2.11953 90.5623C1.50155 90.5623 1 90.0607 1 89.4427V84.9646C1 84.3466 1.50155 83.8451 2.11953 83.8451C2.73751 83.8451 3.23906 84.3466 3.23906 84.9646V89.4427C3.23906 90.0607 2.73751 90.5623 2.11953 90.5623Z" fill="#11CFE7" stroke="#11CFE7" stroke-width="1.2"/>
<path d="M78.2473 68.1717C78.2361 68.1717 78.2227 68.1717 78.2115 68.1717C77.7547 68.1583 77.3539 67.8672 77.1972 67.4395L62.4776 27.4858L54.641 45.1184C54.4596 45.5214 54.061 45.7811 53.6177 45.7811H33.4662C32.8482 45.7811 32.3467 45.2796 32.3467 44.6616C32.3467 44.0436 32.8482 43.5421 33.4662 43.5421H52.89L61.5507 24.0556C61.7365 23.6391 62.1597 23.357 62.6098 23.3928C63.0665 23.4063 63.4673 23.6973 63.624 24.125L78.3436 64.0787L86.1803 46.4461C86.3616 46.0409 86.7602 45.7811 87.2035 45.7811H107.355C107.973 45.7811 108.475 46.2827 108.475 46.9007C108.475 47.5187 107.973 48.0202 107.355 48.0202H87.9312L79.2706 67.5067C79.0892 67.912 78.6884 68.1717 78.2473 68.1717Z" fill="#11CFE7" stroke="#11CFE7" stroke-width="1.2"/>
</svg>
