<svg width="132" height="132" viewBox="0 0 132 132" fill="none" xmlns="http://www.w3.org/2000/svg">
<path d="M91 116H118V82H91V116ZM94.8571 108.444H106.429V112.222H94.8571V108.444ZM106.429 93.3333V97.1111H102.571V93.3333H106.429ZM102.571 89.5556V85.7778H106.429V89.5556H102.571ZM110.286 100.889H114.143V104.667H110.286V100.889ZM106.429 104.667H102.571V100.889H106.429V104.667ZM110.286 97.1111V93.3333H114.143V97.1111H110.286ZM98.7143 97.1111H94.8571V93.3333H98.7143V97.1111ZM98.7143 100.889V104.667H94.8571V100.889H98.7143ZM110.286 112.222V108.444H114.143V112.222H110.286ZM114.143 89.5556H110.286V85.7778H114.143V89.5556ZM98.7143 85.7778V89.5556H94.8571V85.7778H98.7143Z" fill="#11CFE7" stroke="#0D0D0D" stroke-width="1.5"/>
<path d="M15 116H88V82H15V116ZM18.8421 108.444H26.5263V112.222H18.8421V108.444ZM53.4211 104.667V100.889H61.1053V104.667H53.4211ZM53.4211 97.1111V93.3333H61.1053V97.1111H53.4211ZM49.5789 97.1111H41.8947V93.3333H49.5789V97.1111ZM49.5789 100.889V104.667H41.8947V100.889H49.5789ZM38.0526 104.667H30.3684V100.889H38.0526V104.667ZM72.6316 108.444V112.222H30.3684V108.444H72.6316ZM64.9474 104.667V100.889H72.6316V104.667H64.9474ZM76.4737 100.889H84.1579V104.667H76.4737V100.889ZM76.4737 97.1111V93.3333H84.1579V97.1111H76.4737ZM72.6316 97.1111H64.9474V93.3333H72.6316V97.1111ZM64.9474 89.5556V85.7778H72.6316V89.5556H64.9474ZM61.1053 89.5556H53.4211V85.7778H61.1053V89.5556ZM49.5789 89.5556H41.8947V85.7778H49.5789V89.5556ZM38.0526 89.5556H30.3684V85.7778H38.0526V89.5556ZM38.0526 93.3333V97.1111H30.3684V93.3333H38.0526ZM26.5263 97.1111H18.8421V93.3333H26.5263V97.1111ZM26.5263 100.889V104.667H18.8421V100.889H26.5263ZM76.4737 112.222V108.444H84.1579V112.222H76.4737ZM84.1579 89.5556H76.4737V85.7778H84.1579V89.5556ZM26.5263 85.7778V89.5556H18.8421V85.7778H26.5263Z" fill="#FF14A1" stroke="#0D0D0D" stroke-width="1.5"/>
<path d="M34.548 63.9032H30.3545V68.0967H34.548V63.9032Z" fill="#11CFE7" stroke="#0D0D0D" stroke-width="1.5"/>
<path d="M42.9357 63.9032H38.7422V68.0967H42.9357V63.9032Z" fill="#11CFE7" stroke="#0D0D0D" stroke-width="1.5"/>
<path d="M51.3225 63.9032H47.1289V68.0967H51.3225V63.9032Z" fill="#11CFE7" stroke="#0D0D0D" stroke-width="1.5"/>
<path d="M101.645 63.9032H93.2578V68.0967H101.645V63.9032Z" fill="#11CFE7" stroke="#0D0D0D" stroke-width="1.5"/>
<path d="M89.0648 63.9032H80.6777V68.0967H89.0648V63.9032Z" fill="#11CFE7" stroke="#0D0D0D" stroke-width="1.5"/>
<path d="M13.5806 26.1613H24.6998L25.2282 25.809C28.9982 23.2971 33.3847 21.9677 37.9137 21.9677H42.9355V15.6774H76.4839V19.871H80.6774V11.4839H42.9355V5.19355H37.9137C33.3847 5.19355 28.9982 3.86419 25.2261 1.35226L24.6998 1H13.5806V5.19355H1V21.9677H13.5806V26.1613ZM17.7742 5.19355H23.4439C27.7821 7.94032 32.7703 9.3871 37.9158 9.3871H38.7419V17.7742H37.9137C32.7682 17.7742 27.78 19.221 23.4418 21.9677H17.7742V5.19355ZM5.19355 17.7742V9.3871H13.5806V17.7742H5.19355Z" fill="#11CFE7" stroke="#0D0D0D" stroke-width="1.5"/>
<path d="M74.3871 38.7419H120.516C126.297 38.7419 131 34.0388 131 28.258V21.9677C131 16.1869 126.297 11.4838 120.516 11.4838H105.839V7.29028H101.645V15.6774H120.516C123.984 15.6774 126.806 18.4996 126.806 21.9677V28.258C126.806 31.7261 123.984 34.5483 120.516 34.5483H74.3871C68.6063 34.5483 63.9032 39.2514 63.9032 45.0322V47.129H61.8064C58.3384 47.129 55.5161 49.9512 55.5161 53.4193V55.5161H15.0421L1 64.8782V121.384L10.6158 131H41.474L47.7644 126.806H84.2377L90.5281 131H121.386L131 121.384V64.8782L116.958 55.5161H76.4839V53.4193C76.4839 49.9512 73.6616 47.129 70.1935 47.129H68.0968V45.0322C68.0968 41.5642 70.919 38.7419 74.3871 38.7419ZM126.806 67.1217V119.648L119.648 126.806H91.7966L85.5063 122.613H46.4937L40.2034 126.806H12.3519L5.19355 119.648V67.1217L16.3127 59.7096H18.2355L22.429 76.4838H109.575L113.769 59.7096H115.691L126.806 67.1217ZM72.2903 53.4193V55.5161H63.9032V59.7096H109.443L106.298 72.2903H25.7021L22.5569 59.7096H59.7097V53.4193C59.7097 52.2619 60.6511 51.3225 61.8064 51.3225H70.1935C71.3489 51.3225 72.2903 52.2619 72.2903 53.4193Z" fill="#FF14A1" stroke="#0D0D0D" stroke-width="1.5"/>
<path d="M97.4514 7.29028H93.2578V19.8709H97.4514V7.29028Z" fill="#FF14A1" stroke="#0D0D0D" stroke-width="1.5"/>
<path d="M89.0646 7.29028H84.8711V19.8709H89.0646V7.29028Z" fill="#FF14A1" stroke="#0D0D0D" stroke-width="1.5"/>
<mask id="mask0" mask-type="alpha" maskUnits="userSpaceOnUse" x="1" y="1" width="80" height="26">
<path d="M13.5806 26.1613H24.6998L25.2282 25.809C28.9982 23.2971 33.3847 21.9677 37.9137 21.9677H42.9355V15.6774H76.4839V19.871H80.6774V11.4839H42.9355V5.19355H37.9137C33.3847 5.19355 28.9982 3.86419 25.2261 1.35226L24.6998 1H13.5806V5.19355H1V21.9677H13.5806V26.1613ZM17.7742 5.19355H23.4439C27.7821 7.94032 32.7703 9.3871 37.9158 9.3871H38.7419V17.7742H37.9137C32.7682 17.7742 27.78 19.221 23.4418 21.9677H17.7742V5.19355ZM5.19355 17.7742V9.3871H13.5806V17.7742H5.19355Z" fill="#11CFE7"/>
</mask>
<g mask="url(#mask0)">
<rect x="-8" y="-11" width="51" height="45" fill="#FF14A1"/>
</g>
</svg>
