<svg width="180" height="132" viewBox="0 0 180 132" fill="none" xmlns="http://www.w3.org/2000/svg">
<path d="M106.411 96.1086C105.975 96.1086 105.562 95.9417 105.256 95.6311C104.946 95.325 104.774 94.9128 104.774 94.4761C104.774 94.0397 104.946 93.6316 105.256 93.3255L114.08 84.4974V75.9586V75.9545C114.084 75.0566 114.815 74.326 115.713 74.326C116.615 74.326 117.345 75.0611 117.345 75.9586V85.1745C117.345 85.6112 117.174 86.0193 116.868 86.3295L107.562 95.6311C107.256 95.9417 106.844 96.1086 106.411 96.1086Z" fill="#FF14A1"/>
<path d="M115.713 77.624C114.349 77.6199 113.088 77.2694 112.072 76.6122C110.88 75.8449 110.194 74.6899 110.186 73.4451C110.195 71.6574 111.505 70.6207 112.068 70.2571C113.084 69.5918 114.345 69.2408 115.713 69.2367C117.092 69.2408 118.357 69.5959 119.369 70.2571C120.537 71.0162 121.235 72.2043 121.235 73.4451C121.231 74.6899 120.549 75.8449 119.365 76.6082C118.353 77.2694 117.088 77.6203 115.713 77.624ZM115.713 74.3589H115.733C116.566 74.3589 117.231 74.1103 117.574 73.8773C117.954 73.6201 117.97 73.4569 117.97 73.4446C117.97 73.4446 117.97 73.4447 117.97 73.4402C117.97 73.4361 117.978 73.2687 117.57 72.979C117.227 72.7504 116.562 72.5014 115.729 72.5014H115.713H115.693C114.872 72.5014 114.207 72.7504 113.864 72.9834C113.452 73.2647 113.452 73.4402 113.452 73.4402C113.452 73.4447 113.452 73.4446 113.452 73.4487C113.452 73.4569 113.456 73.4773 113.497 73.5422C113.521 73.5834 113.623 73.7218 113.86 73.8769C114.207 74.1095 114.872 74.3585 115.693 74.3585H115.713V74.3589Z" fill="#FF14A1"/>
<path d="M72.9718 96.227C72.535 96.227 72.1269 96.0556 71.8167 95.7495L62.4009 86.3295C62.0948 86.0234 61.9233 85.6034 61.9233 85.1745V75.9586C61.9233 75.0611 62.6539 74.326 63.5559 74.326C64.4538 74.326 65.1885 75.0611 65.1885 75.9586V84.4974L74.1268 93.4394C74.7635 94.0765 74.7635 95.1132 74.1268 95.7495C73.8166 96.056 73.4085 96.227 72.9718 96.227Z" fill="#FF14A1"/>
<path d="M63.556 77.6202C62.1806 77.6202 60.9113 77.2696 59.8909 76.6121C58.6951 75.8489 58.0094 74.6938 58.0012 73.4449C58.0053 71.6527 59.3236 70.616 59.8868 70.2532C60.9072 69.592 62.1765 69.241 63.556 69.2369C64.9233 69.241 66.1845 69.5961 67.1967 70.2573C67.7599 70.621 69.0701 71.6576 69.0782 73.4453C69.0701 74.6901 68.3844 75.8452 67.1926 76.6125C66.1763 77.2692 64.9192 77.6202 63.556 77.6202ZM63.556 74.3587C63.5805 74.3587 63.6091 74.3587 63.6336 74.3587C64.7845 74.3587 65.6621 73.7836 65.7682 73.5469C65.809 73.4775 65.8131 73.4567 65.8131 73.449V73.4404C65.8131 73.4363 65.8171 73.269 65.4008 72.9837C65.058 72.751 64.3968 72.5017 63.5764 72.5017H63.556H63.5356C62.6949 72.5017 62.0255 72.7506 61.6745 72.9874C61.2623 73.2686 61.2664 73.44 61.2664 73.44C61.2664 73.4445 61.2664 73.4445 61.2664 73.4486C61.2664 73.4567 61.2664 73.4771 61.3113 73.542C61.3357 73.5833 61.4337 73.7216 61.6704 73.873C62.0214 74.1098 62.6989 74.3583 63.5356 74.3583H63.556V74.3587Z" fill="#FF14A1"/>
<path d="M98.5991 107.52H80.7837C80.3551 107.52 79.9348 107.345 79.6286 107.043C79.3266 106.737 79.1511 106.317 79.1511 105.888V100.443C79.1511 100.015 79.3266 99.5942 79.6286 99.2926C79.9348 98.9865 80.3551 98.8147 80.7837 98.8147H98.5991C99.0277 98.8147 99.4481 98.9865 99.7501 99.2926C100.056 99.5942 100.232 100.015 100.232 100.443V105.888C100.232 106.321 100.06 106.733 99.7501 107.043C99.444 107.349 99.0358 107.52 98.5991 107.52ZM82.4163 104.255H96.9666V102.076H82.4163V104.255Z" fill="#FF14A1"/>
<path d="M75.2573 126.242C74.3553 126.242 73.6248 125.508 73.6248 124.61V118.643C73.6248 117.904 74.1227 117.255 74.8329 117.064L88.073 113.525V105.888C88.073 104.986 88.8036 104.256 89.7056 104.256C90.6076 104.256 91.3382 104.986 91.3382 105.888V114.782C91.3382 115.517 90.8402 116.166 90.126 116.357L76.8899 119.896V124.61C76.8899 125.508 76.1552 126.242 75.2573 126.242Z" fill="#FF14A1"/>
<path d="M104.13 126.242C103.228 126.242 102.497 125.508 102.497 124.61V119.896L89.2854 116.357C88.5712 116.165 88.0732 115.516 88.0732 114.782V105.888C88.0732 104.986 88.8038 104.256 89.7058 104.256C90.6078 104.256 91.3384 104.986 91.3384 105.888V113.525L104.55 117.064C105.264 117.255 105.762 117.904 105.762 118.643V124.61C105.762 125.508 105.032 126.242 104.13 126.242Z" fill="#FF14A1"/>
<path d="M75.2573 131.74H75.2492C74.1594 131.74 73.1023 131.295 72.3473 130.524C71.5963 129.765 71.1637 128.707 71.1678 127.622C71.1718 125.369 73.0044 123.536 75.2573 123.532C76.3512 123.536 77.3756 123.965 78.1429 124.732C78.9143 125.504 79.3388 126.528 79.3469 127.621C79.3428 128.723 78.9184 129.756 78.147 130.532C77.3756 131.307 76.3512 131.735 75.2573 131.74ZM75.2573 126.797C74.7961 126.797 74.437 127.161 74.4329 127.622C74.4411 128.12 74.7798 128.471 75.2573 128.475C75.7022 128.475 76.0777 128.083 76.0818 127.622C76.0818 127.406 75.9961 127.206 75.8328 127.042C75.6736 126.883 75.4696 126.797 75.2573 126.797Z" fill="#11CFE7"/>
<path d="M104.129 131.74C103.036 131.735 102.007 131.307 101.236 130.527C100.464 129.752 100.04 128.719 100.04 127.621C100.044 126.528 100.472 125.504 101.239 124.732C102.007 123.964 103.035 123.536 104.129 123.532C106.378 123.532 108.214 125.369 108.219 127.622C108.215 129.887 106.378 131.735 104.129 131.74ZM104.129 126.797C103.697 126.797 103.305 127.189 103.305 127.622C103.305 128.083 103.68 128.475 104.129 128.475C104.599 128.471 104.946 128.112 104.954 127.622C104.95 127.161 104.591 126.797 104.129 126.797Z" fill="#11CFE7"/>
<path d="M102.872 102.076H76.5145C74.584 102.064 73.1147 101.852 72.0208 101.423C71.6331 101.256 71.2331 101.08 70.8168 100.598C70.7025 100.472 70.3434 99.9983 70.3474 99.3331C70.3474 98.6147 70.4209 97.1658 70.8699 95.5169C71.4943 93.2599 72.5922 91.529 74.1309 90.378C75.4492 89.3903 77.1308 88.8683 78.9919 88.8683H100.391C102.248 88.8683 103.929 89.3903 105.256 90.378C106.358 91.1988 107.239 92.3289 107.881 93.737C108.619 95.3859 109.019 97.3205 109.036 99.3327C109.044 100.002 108.676 100.48 108.562 100.606C108.321 100.892 108.085 101.051 107.86 101.182C107.382 101.451 106.905 101.594 106.456 101.704C105.46 101.946 104.219 102.076 102.872 102.076ZM76.5145 98.811H102.921C104.158 98.811 105.182 98.6645 105.738 98.5213C105.693 97.9948 105.594 97.2034 105.366 96.3785C104.958 94.8729 104.227 93.6725 103.309 93.0032C102.505 92.4154 101.566 92.1379 100.354 92.1338H79.0286C77.8165 92.1379 76.8777 92.415 76.0737 93.0032C75.4247 93.4807 74.8901 94.1827 74.4778 95.0847C73.9024 96.3377 73.7105 97.7703 73.6493 98.5253C73.6616 98.5253 73.6779 98.5298 73.6901 98.5339C74.3921 98.7094 75.437 98.8115 76.4859 98.8115H76.5145V98.811Z" fill="#11CFE7"/>
<path d="M89.416 125.071C88.514 125.071 87.7834 124.34 87.7834 123.438V114.781C87.7834 113.879 88.514 113.149 89.416 113.149C90.3139 113.149 91.0445 113.879 91.0445 114.781V123.438C91.0445 124.34 90.3139 125.071 89.416 125.071Z" fill="#FF14A1"/>
<path d="M89.4119 129.984C87.163 129.98 85.3263 128.148 85.3223 125.895C85.3304 124.801 85.7549 123.777 86.5263 123.005C87.2936 122.238 88.318 121.809 89.4119 121.805C89.4119 121.805 89.4119 121.805 89.4159 121.805C90.5057 121.81 91.5338 122.238 92.3015 123.005C93.0729 123.777 93.4974 124.801 93.5051 125.895C93.5014 128.148 91.6685 129.981 89.4119 129.984ZM89.4119 125.07C88.9833 125.07 88.5915 125.462 88.5915 125.895C88.5915 126.352 88.9507 126.716 89.4159 126.72C89.8771 126.716 90.2363 126.353 90.2404 125.895C90.2404 125.679 90.1547 125.479 89.9914 125.316C89.8282 125.156 89.6282 125.07 89.4119 125.07Z" fill="#11CFE7"/>
<path d="M169.069 68.584H106.554C106.032 68.584 105.538 68.3309 105.232 67.9065C104.925 67.482 104.84 66.9351 105.007 66.4371C106.194 62.8247 106.44 60.3803 106.476 57.1352C106.48 56.2454 107.215 55.5189 108.109 55.5189H169.069C169.502 55.5189 169.922 55.6944 170.224 55.9964C170.526 56.2985 170.702 56.7189 170.702 57.1515V66.9514C170.702 67.3877 170.534 67.7958 170.224 68.1064C169.914 68.4126 169.505 68.584 169.069 68.584ZM108.745 65.3188H167.437V58.7845H109.705C109.607 61.1558 109.313 63.172 108.745 65.3188Z" fill="#FF14A1"/>
<path d="M73.033 68.5839H10.1954C9.76683 68.5839 9.34645 68.408 9.04442 68.1064C8.73832 67.8003 8.56689 67.3799 8.56689 66.9514V57.1519C8.56689 56.7233 8.73832 56.3029 9.04442 55.9968C9.34645 55.6948 9.76683 55.5193 10.1954 55.5193H71.3066C72.1963 55.5193 72.9106 56.2131 72.9392 57.1029L72.9677 58.0661C73.0698 61.3067 73.7228 63.5189 74.4126 65.8616C74.4738 66.0698 74.5391 66.2779 74.6003 66.4942C74.7432 66.984 74.6452 67.5187 74.3391 67.9309C74.033 68.3386 73.5432 68.5839 73.033 68.5839ZM11.828 65.3188H70.8576C70.376 63.6005 69.8699 61.4863 69.7271 58.7844H11.832L11.828 65.3188Z" fill="#FF14A1"/>
<path d="M100.791 87.2152L78.4492 87.2112C76.8166 87.0928 75.3228 86.15 74.4575 84.6889C73.5841 83.2644 73.2576 81.6237 73.0739 80.3584C72.8168 78.5585 72.7719 76.6321 72.7392 75.0812C72.7148 74.0241 72.6943 73.1098 72.6127 72.4854C72.6127 72.4813 72.6127 72.4813 72.6127 72.4813C72.3433 70.359 71.8372 68.6611 71.2985 66.8612C71.2087 66.5591 71.1189 66.2571 71.0291 65.9469C70.4373 63.9225 69.7965 61.4859 69.7027 58.18C69.7027 58.1759 69.7027 58.1759 69.7027 58.1759C69.6455 56.6086 69.6169 55.0128 69.6169 53.4333C69.6169 51.8823 70.3271 50.3763 71.576 49.3069C72.7678 48.2784 74.3351 47.707 75.9881 47.707H103.395C105.048 47.707 106.615 48.2784 107.811 49.3069C109.056 50.3763 109.77 51.8823 109.77 53.4455C109.766 53.8496 109.766 54.2455 109.766 54.6332C109.754 59.2371 109.745 62.5634 108.072 67.502C107.019 70.5998 106.635 71.9548 106.431 73.2976C106.272 74.3302 106.215 75.4607 106.113 77.3382C106.08 77.9871 106.039 78.7218 105.99 79.5707C105.929 80.5993 105.827 81.7012 105.534 82.8236C105.288 83.7505 104.823 85.1011 103.648 86.1137C102.913 86.7504 101.946 87.1381 100.921 87.2112L100.795 87.2152C100.795 87.2152 100.795 87.2152 100.791 87.2152ZM75.9881 50.9726C75.1269 50.9726 74.2983 51.2664 73.7106 51.7766C73.1678 52.2501 72.8821 52.8256 72.8821 53.4337C72.8821 54.9887 72.9107 56.5437 72.9678 58.0539V58.0702C73.0535 61.0047 73.5841 63.0373 74.1637 65.0331C74.2534 65.3433 74.3473 65.6576 74.4412 65.9759C74.984 67.7921 75.5473 69.67 75.8493 72.0699L75.8534 72.0781C75.9554 72.976 75.9799 74.0494 76.0085 75.1881C76.0289 76.0574 76.0493 76.9594 76.1064 77.8659C76.2329 80.1964 76.6411 82.0576 77.237 82.9718C77.6941 83.6493 78.0043 83.8615 78.6859 83.9554H100.709C101.117 83.9105 101.321 83.8003 101.53 83.6285C101.759 83.4367 101.966 83.1228 102.138 82.7187C102.53 81.8086 102.677 80.4005 102.734 79.376C102.783 78.5153 102.823 77.7643 102.856 77.0986C102.954 75.2705 103.016 74.0624 103.207 72.805C103.472 71.0618 103.966 69.4378 104.978 66.4583C106.472 62.0055 106.48 59.2873 106.497 54.7814C106.501 54.3528 106.501 53.9039 106.505 53.4345C106.501 52.8264 106.216 52.2509 105.677 51.7774C105.085 51.2673 104.256 50.9734 103.399 50.9734H75.9881V50.9726Z" fill="#11CFE7"/>
<path d="M153.739 127.381H125.745C125.316 127.381 124.896 127.21 124.59 126.904C124.288 126.601 124.112 126.181 124.112 125.748V66.9514C124.112 66.5229 124.288 66.0984 124.59 65.7964C124.896 65.4903 125.316 65.3188 125.745 65.3188H153.739C154.172 65.3188 154.592 65.4944 154.894 65.7964C155.2 66.0984 155.372 66.5188 155.372 66.9514V125.748C155.372 126.185 155.204 126.597 154.894 126.904C154.588 127.213 154.176 127.381 153.739 127.381ZM127.377 124.116H152.111V68.584H127.377V124.116Z" fill="#FF14A1"/>
<path d="M35.2961 127.381H25.4966C25.068 127.381 24.6476 127.21 24.3415 126.904C24.0395 126.601 23.864 126.181 23.864 125.748V66.9514C23.864 66.5184 24.0395 66.0984 24.3415 65.7964C24.6476 65.4903 25.068 65.3188 25.4966 65.3188H35.2961C35.7246 65.3188 36.145 65.4903 36.4511 65.7964C36.7532 66.0984 36.9287 66.5188 36.9287 66.9514V125.748C36.9287 126.185 36.7572 126.597 36.4511 126.904C36.1409 127.213 35.7328 127.381 35.2961 127.381ZM27.1292 124.116H33.6635V68.584H27.1292V124.116Z" fill="#FF14A1"/>
<path d="M177.64 127.381H125.659C124.757 127.381 124.026 126.65 124.026 125.748C124.026 124.851 124.757 124.116 125.659 124.116H177.64C178.542 124.116 179.273 124.851 179.273 125.748C179.273 126.65 178.542 127.381 177.64 127.381Z" fill="#FF14A1"/>
<path d="M62.7642 127.381H1.63257C0.730575 127.381 0 126.65 0 125.748C0 124.851 0.730575 124.116 1.63257 124.116H62.7642C63.6662 124.116 64.3968 124.851 64.3968 125.748C64.3968 126.65 63.6662 127.381 62.7642 127.381Z" fill="#FF14A1"/>
<path d="M153.739 88.33H131.45C130.548 88.33 129.818 87.5953 129.818 86.6974C129.818 85.7954 130.548 85.0648 131.45 85.0648H153.739C154.641 85.0648 155.371 85.7954 155.371 86.6974C155.372 87.5953 154.641 88.33 153.739 88.33Z" fill="#FF14A1"/>
<path d="M153.739 107.606H131.45C130.548 107.606 129.818 106.876 129.818 105.974C129.818 105.076 130.548 104.341 131.45 104.341H153.739C154.641 104.341 155.371 105.076 155.371 105.974C155.372 106.876 154.641 107.606 153.739 107.606Z" fill="#FF14A1"/>
<path d="M139.756 81.0731C137.552 81.0691 135.756 79.2895 135.756 77.1023C135.76 74.8983 137.556 73.1021 139.756 73.098C141.944 73.098 143.727 74.8939 143.731 77.1023C143.727 78.1635 143.315 79.1594 142.564 79.9103C141.817 80.6568 140.817 81.0731 139.756 81.0731ZM139.756 76.3632C139.336 76.3717 139.03 76.6815 139.021 77.1023C139.021 77.4896 139.352 77.808 139.756 77.808C140.136 77.808 140.466 77.4774 140.466 77.1023C140.462 76.6893 140.152 76.3632 139.756 76.3632Z" fill="#10ABBF"/>
<path d="M139.756 100.44C137.552 100.435 135.756 98.6519 135.756 96.4683C135.756 94.2811 137.552 92.4975 139.756 92.4934C140.817 92.4975 141.817 92.9097 142.564 93.6603C143.315 94.4072 143.728 95.4035 143.731 96.4683C143.727 97.5299 143.315 98.5254 142.564 99.2723C141.817 100.023 140.821 100.435 139.756 100.44ZM139.756 95.7581C139.352 95.7581 139.021 96.0761 139.021 96.4679C139.021 96.8556 139.352 97.174 139.756 97.174C140.136 97.174 140.466 96.8434 140.466 96.4679C140.466 96.0887 140.135 95.7581 139.756 95.7581Z" fill="#10ABBF"/>
<path d="M139.756 119.834C137.552 119.83 135.756 118.046 135.756 115.863C135.752 114.798 136.185 113.77 136.936 113.035C137.671 112.308 138.699 111.888 139.752 111.888H139.756C140.805 111.888 141.825 112.308 142.56 113.039C143.307 113.773 143.731 114.802 143.731 115.863C143.727 116.924 143.315 117.92 142.564 118.671C141.817 119.418 140.817 119.83 139.756 119.834ZM139.756 115.153C139.315 115.169 139.034 115.443 139.022 115.863C139.022 116.251 139.352 116.569 139.756 116.569C140.136 116.569 140.466 116.238 140.466 115.863C140.458 115.455 140.168 115.165 139.756 115.153Z" fill="#10ABBF"/>
<path d="M80.6331 48.1361H28.1827C26.8766 48.132 25.6481 47.6218 24.7257 46.7035C23.7951 45.777 23.2809 44.5444 23.2727 43.2261V5.48925C23.2809 4.17503 23.7951 2.93836 24.7257 2.01596C25.6481 1.09355 26.8766 0.587455 28.1827 0.583374H63.3115C64.2135 0.583374 64.9441 1.31395 64.9441 2.21594C64.9441 3.11386 64.2135 3.84852 63.3115 3.84852H28.1827C27.2929 3.84852 26.5419 4.60358 26.5378 5.48925V43.2261C26.5419 44.1159 27.2929 44.8669 28.1827 44.8709H80.6331C81.5228 44.8669 82.2738 44.1159 82.2779 43.2261V5.48925C82.2738 4.60358 81.5228 3.84852 80.6331 3.84852H79.6209C78.723 3.84852 77.9883 3.11386 77.9883 2.21594C77.9883 1.31395 78.723 0.583374 79.6209 0.583374H80.6331C81.9391 0.583374 83.1676 1.09355 84.0941 2.01596C85.0247 2.93836 85.539 4.17503 85.543 5.48925V43.2261C85.539 44.5444 85.0247 45.777 84.0941 46.7035C83.1676 47.6218 81.9391 48.132 80.6331 48.1361ZM71.4662 3.84852C70.5642 3.84852 69.8336 3.11386 69.8336 2.21594C69.8336 1.31395 70.5642 0.583374 71.4662 0.583374C72.3641 0.583374 73.0988 1.31395 73.0988 2.21594C73.0988 3.11386 72.3641 3.84852 71.4662 3.84852Z" fill="#FF14A1"/>
<path d="M79.1107 37.1652H29.5867C29.1581 37.1652 28.7377 36.9897 28.4316 36.6876C28.1296 36.3856 27.9541 35.9652 27.9541 35.5326V6.3667C27.9541 5.93815 28.1296 5.51776 28.4316 5.21574C28.7377 4.90963 29.1581 4.73413 29.5867 4.73413H79.1107C79.5393 4.73413 79.9637 4.90963 80.2657 5.21574C80.5678 5.51776 80.7433 5.93815 80.7433 6.3667V35.5326C80.7433 35.9611 80.5678 36.3815 80.2657 36.6876C79.9637 36.9897 79.5393 37.1652 79.1107 37.1652ZM31.2192 33.9H77.4781V7.99927H31.2192V33.9Z" fill="#11CFE7"/>
<path d="M63.9319 58.7844H44.8879C44.3777 58.7844 43.9043 58.5518 43.5941 58.1477C43.2839 57.7437 43.1778 57.2294 43.3084 56.7356L46.1164 46.0871C46.3042 45.3729 46.9531 44.8708 47.6959 44.8708H61.1238C61.8626 44.8708 62.5115 45.3729 62.7034 46.0871L65.5073 56.7356C65.6379 57.2294 65.5359 57.7437 65.2257 58.1477C64.9114 58.5518 64.442 58.7844 63.9319 58.7844ZM47.0062 55.5193H61.8136L59.8668 48.136H48.953L47.0062 55.5193Z" fill="#FF14A1"/>
<path d="M129.358 29.7455C125.526 29.7455 121.918 28.2476 119.208 25.5375C116.494 22.8234 115 19.2195 115 15.387C115 11.5423 116.493 7.93026 119.208 5.21203C121.918 2.49788 125.522 1 129.358 1C133.191 1 136.795 2.49788 139.509 5.21203C142.219 7.93026 143.717 11.5423 143.717 15.387C143.713 23.3009 137.272 29.7414 129.358 29.7455ZM129.358 4.26514C123.253 4.27739 118.273 9.26489 118.265 15.387C118.273 21.4928 123.253 26.4681 129.358 26.4804C135.464 26.4681 140.439 21.4928 140.452 15.387C140.439 9.26489 135.464 4.27739 129.358 4.26514Z" fill="#FF14A1"/>
<path d="M129.354 17.0196C128.807 17.0196 128.297 16.7461 127.995 16.289L125.011 11.7831C125.011 11.7831 125.011 11.7831 125.011 11.779C124.518 11.028 124.722 10.0158 125.473 9.52199C125.742 9.34241 126.052 9.24854 126.375 9.24854C126.922 9.24854 127.432 9.52199 127.734 9.97911L130.15 13.6238L134.48 13.0116C135.362 12.8851 136.203 13.5218 136.326 14.3993C136.386 14.8278 136.277 15.2564 136.015 15.6074C135.754 15.9543 135.37 16.1829 134.941 16.2441L129.587 17.0032C129.51 17.0114 129.432 17.0196 129.354 17.0196Z" fill="#FF14A1"/>
<path d="M29.5908 37.1651C29.0112 37.1651 28.4725 36.859 28.1786 36.3611C27.7215 35.5856 27.9827 34.5857 28.7582 34.1286L53.5079 19.5293C53.7569 19.3824 54.0467 19.3048 54.3365 19.3048C54.912 19.3048 55.4507 19.6109 55.7446 20.1089C56.2017 20.8843 55.9405 21.8843 55.165 22.3414L30.4152 36.9407C30.1663 37.0876 29.8806 37.1651 29.5908 37.1651Z" fill="#11CFE7"/>
<path d="M54.512 27.8635C53.9365 27.8635 53.3937 27.5533 53.1039 27.0594C52.6468 26.2799 52.908 25.2799 53.6835 24.8228L66.1767 17.4803C66.4257 17.3334 66.7114 17.2559 67.0011 17.2559C67.5766 17.2559 68.1195 17.566 68.4092 18.0599C68.6296 18.4395 68.6909 18.8762 68.5847 19.3007C68.4745 19.721 68.2052 20.0761 67.8297 20.2965L55.3364 27.639C55.0875 27.7859 54.8018 27.8635 54.512 27.8635Z" fill="#11CFE7"/>
</svg>
