<svg width="83" height="138" viewBox="0 0 83 138" fill="none" xmlns="http://www.w3.org/2000/svg">
    <path d="M61.2657 10.5137H21.5769C20.632 10.5137 19.8445 9.82649 19.8445 9.00189C19.8445 8.17728 20.632 7.49011 21.5769 7.49011H61.4232C62.3682 7.49011 63.1557 8.17728 63.1557 9.00189C63.1557 9.82649 62.3682 10.5137 61.2657 10.5137Z" fill="#11CFE7"/>
    <path d="M61.2657 28.9299H21.5769C20.632 28.9299 19.8445 28.2428 19.8445 27.4181C19.8445 26.5935 20.632 25.9064 21.5769 25.9064H61.4232C62.3682 25.9064 63.1557 26.5935 63.1557 27.4181C63.1557 28.2428 62.3682 28.9299 61.2657 28.9299Z" fill="#11CFE7"/>
    <path d="M61.2657 40.7491H21.5769C20.632 40.7491 19.8445 40.062 19.8445 39.2374C19.8445 38.4128 20.632 37.7256 21.5769 37.7256H61.4232C62.3682 37.7256 63.1557 38.4128 63.1557 39.2374C63.1557 40.062 62.3682 40.7491 61.2657 40.7491Z" fill="#11CFE7"/>
    <path d="M61.2657 52.4311H21.5769C20.632 52.4311 19.8445 51.744 19.8445 50.9194C19.8445 50.0948 20.632 49.4076 21.5769 49.4076H61.4232C62.3682 49.4076 63.1557 50.0948 63.1557 50.9194C63.1557 51.744 62.3682 52.4311 61.2657 52.4311Z" fill="#11CFE7"/>
    <path d="M61.2657 64.1129H21.5769C20.632 64.1129 19.8445 63.4257 19.8445 62.6011C19.8445 61.7765 20.632 61.0894 21.5769 61.0894H61.4232C62.3682 61.0894 63.1557 61.7765 63.1557 62.6011C63.1557 63.4257 62.3682 64.1129 61.2657 64.1129Z" fill="#11CFE7"/>
    <path d="M61.2657 137.503C60.6357 137.503 60.0057 137.228 59.6907 136.678C59.2182 135.991 59.5332 135.029 60.4782 134.617L79.3776 125.821V11.7506L63.1556 4.19174V117.3C63.1556 118.125 62.3681 118.812 61.4232 118.812C60.4782 118.812 59.6907 118.125 59.6907 117.3V1.58049C59.6907 1.03076 60.0057 0.481019 60.4782 0.206151C60.9507 -0.0687171 61.7381 -0.0687171 62.2106 0.206151L82.055 9.41424C82.685 9.68911 83 10.2388 83 10.7886V126.783C83 127.333 82.685 127.882 82.055 128.157L62.2106 137.365C61.8956 137.503 61.5807 137.503 61.2657 137.503Z" fill="#FF14A1"/>
    <path d="M21.5768 137.503C21.2619 137.503 20.9469 137.503 20.7894 137.365L0.944969 128.157C0.314988 127.882 0 127.333 0 126.783V10.7886C0 10.2388 0.314988 9.68911 0.944969 9.41424L20.7894 0.206151C21.2619 -0.0687171 22.0493 -0.0687171 22.5218 0.206151C22.9943 0.481019 23.3093 1.03076 23.3093 1.58049V116.338L32.759 121.423H50.0835L60.3207 115.926C61.1081 115.513 62.2106 115.651 62.8406 116.475C63.3131 117.163 63.1556 118.125 62.2106 118.537L51.5009 124.309C51.1859 124.447 50.871 124.584 50.556 124.584H32.2865C31.9715 124.584 31.6565 124.447 31.3415 124.309L20.6319 118.537C20.1594 118.262 19.8444 117.712 19.8444 117.163V4.19174L3.46489 11.7506V125.821L22.3643 134.617C23.1518 135.029 23.6243 135.991 23.1518 136.678C22.8368 137.228 22.2068 137.503 21.5768 137.503Z" fill="#FF14A1"/>
    <path d="M61.2657 137.503H21.5769C20.632 137.503 19.8445 136.816 19.8445 135.991C19.8445 135.166 20.632 134.479 21.5769 134.479H61.4232C62.3682 134.479 63.1557 135.166 63.1557 135.991C63.1557 136.816 62.3682 137.503 61.2657 137.503Z" fill="#FF14A1"/>
    <path d="M41.1453 99.9833C35.7853 99.9833 31.3875 95.5854 31.3875 90.2254C31.3875 87.3393 32.6244 84.5906 34.9607 82.6666C35.6479 82.1168 36.6099 82.2543 37.1597 82.804C37.7094 83.4912 37.572 84.4532 37.0222 85.0029C35.5105 86.2399 34.6859 88.1639 34.6859 90.088C34.6859 93.7987 37.7094 96.8223 41.4201 96.8223C45.1309 96.8223 48.1544 93.7987 48.1544 90.088C48.1544 88.0265 47.1924 86.1024 45.5432 84.8655C44.856 84.3158 44.7186 83.3537 45.2683 82.6666C45.818 81.9794 46.7801 81.842 47.4672 82.3917C49.8036 84.3158 51.178 87.0645 51.178 90.088C50.9031 95.5854 46.5052 99.9833 41.1453 99.9833Z" fill="#11CFE7"/>
    <path d="M41.1451 89.5384C40.3205 89.5384 39.6333 88.8512 39.6333 88.0266V78.6811C39.6333 77.8565 40.3205 77.1693 41.1451 77.1693C41.9697 77.1693 42.6568 77.8565 42.6568 78.6811V88.0266C42.6568 88.7138 41.9697 89.5384 41.1451 89.5384Z" fill="#FF14A1"/>
</svg>
